HIERARCHY
ROOT Hips
{
	OFFSET 0.000000 121.760803 0.000000
	CHANNELS 6 Xposition Yposition Zposition Xrotation Yrotation Zrotation 
	JOINT Spine
	{
		OFFSET 0.072000 7.257294 -0.789700
		CHANNELS 3 Xrotation Yrotation Zrotation
		JOINT Spine1
		{
			OFFSET 0.000000 12.508769 -0.658067
			CHANNELS 3 Xrotation Yrotation Zrotation
			JOINT Spine1_split
			{
				OFFSET 0.000000 12.508769 -0.658067
				CHANNELS 3 Xrotation Yrotation Zrotation
				JOINT Spine2
				{
					OFFSET 0.000000 12.508769 -0.658067
					CHANNELS 3 Xrotation Yrotation Zrotation
					JOINT Neck
					{
						OFFSET 0.000000 14.033295 7.520400
						CHANNELS 3 Xrotation Yrotation Zrotation
						JOINT Head
						{
							OFFSET 0.000000 8.198502 5.703100
							CHANNELS 3 Xrotation Yrotation Zrotation
							JOINT HeadTop_End
							{
								OFFSET 0.000000 17.760803 13.332701
								CHANNELS 3 Xrotation Yrotation Zrotation
								End Site
								{
									OFFSET 0.000000 0.000000 0.000000
								}
							}
						}
					}
					JOINT LeftShoulder
					{
						OFFSET 6.292450 5.785301 -0.669000
						CHANNELS 3 Xrotation Yrotation Zrotation
						JOINT LeftShoulder_split
						{
							OFFSET 6.292450 5.785301 -0.669000
							CHANNELS 3 Xrotation Yrotation Zrotation
							JOINT LeftArm
							{
								OFFSET 13.907140 -6.093903 1.965100
								CHANNELS 3 Xrotation Yrotation Zrotation
								JOINT LeftForeArm
								{
									OFFSET 34.140198 0.000000 0.000000
									CHANNELS 3 Xrotation Yrotation Zrotation
									JOINT LeftHand
									{
										OFFSET 40.960209 0.000000 0.000000
										CHANNELS 3 Xrotation Yrotation Zrotation
										JOINT LeftHandThumb1
										{
											OFFSET 10.006996 -7.170425 9.573125
											CHANNELS 3 Xrotation Yrotation Zrotation
											JOINT LeftHandThumb2
											{
												OFFSET 1.835007 -1.059448 1.059443
												CHANNELS 3 Xrotation Yrotation Zrotation
												JOINT LeftHandThumb3
												{
													OFFSET 2.112267 -1.219513 1.219518
													CHANNELS 3 Xrotation Yrotation Zrotation
													JOINT LeftHandThumb4
													{
														OFFSET 4.843811 -2.796570 2.796576
														CHANNELS 3 Xrotation Yrotation Zrotation
														End Site
														{
															OFFSET 0.000000 0.000000 0.000000
														}
													}
												}
											}
										}
										JOINT LeftHandIndex1
										{
											OFFSET 18.389847 -0.922348 4.596882
											CHANNELS 3 Xrotation Yrotation Zrotation
											JOINT LeftHandIndex2
											{
												OFFSET 4.711273 0.000000 0.000000
												CHANNELS 3 Xrotation Yrotation Zrotation
												JOINT LeftHandIndex3
												{
													OFFSET 2.886131 0.000000 0.000000
													CHANNELS 3 Xrotation Yrotation Zrotation
													JOINT LeftHandIndex4
													{
														OFFSET 6.145912 0.000000 0.000000
														CHANNELS 3 Xrotation Yrotation Zrotation
														End Site
														{
															OFFSET 0.000000 0.000000 0.000000
														}
													}
												}
											}
										}
										JOINT LeftHandMiddle1
										{
											OFFSET 18.013008 0.000000 0.000000
											CHANNELS 3 Xrotation Yrotation Zrotation
											JOINT LeftHandMiddle2
											{
												OFFSET 4.946693 0.000000 0.000000
												CHANNELS 3 Xrotation Yrotation Zrotation
												JOINT LeftHandMiddle3
												{
													OFFSET 3.342232 0.000000 0.000000
													CHANNELS 3 Xrotation Yrotation Zrotation
													JOINT LeftHandMiddle4
													{
														OFFSET 4.461754 0.000000 0.000000
														CHANNELS 3 Xrotation Yrotation Zrotation
														End Site
														{
															OFFSET 0.000000 0.000000 0.000000
														}
													}
												}
											}
										}
										JOINT LeftHandRing1
										{
											OFFSET 15.849892 -0.102921 -4.126150
											CHANNELS 3 Xrotation Yrotation Zrotation
											JOINT LeftHandRing2
											{
												OFFSET 3.527054 0.000000 0.000000
												CHANNELS 3 Xrotation Yrotation Zrotation
												JOINT LeftHandRing3
												{
													OFFSET 2.961098 0.000000 0.000000
													CHANNELS 3 Xrotation Yrotation Zrotation
													JOINT LeftHandRing4
													{
														OFFSET 4.927200 0.000000 0.000000
														CHANNELS 3 Xrotation Yrotation Zrotation
														End Site
														{
															OFFSET 0.000000 0.000000 0.000000
														}
													}
												}
											}
										}
										JOINT LeftHandPinky1
										{
											OFFSET 12.791824 -0.832031 -6.799156
											CHANNELS 3 Xrotation Yrotation Zrotation
											JOINT LeftHandPinky2
											{
												OFFSET 3.327133 0.000000 0.000000
												CHANNELS 3 Xrotation Yrotation Zrotation
												JOINT LeftHandPinky3
												{
													OFFSET 3.014900 0.000000 0.000000
													CHANNELS 3 Xrotation Yrotation Zrotation
													JOINT LeftHandPinky4
													{
														OFFSET 5.847786 0.000000 0.000000
														CHANNELS 3 Xrotation Yrotation Zrotation
														End Site
														{
															OFFSET 0.000000 0.000000 0.000000
														}
													}
												}
											}
										}
									}
								}
							}
						}
					}
					JOINT RightShoulder
					{
						OFFSET -6.292450 5.785301 -0.669000
						CHANNELS 3 Xrotation Yrotation Zrotation
						JOINT RightShoulder_split
						{
							OFFSET -6.292450 5.785301 -0.669000
							CHANNELS 3 Xrotation Yrotation Zrotation
							JOINT RightArm
							{
								OFFSET -13.907140 -6.093903 1.965100
								CHANNELS 3 Xrotation Yrotation Zrotation
								JOINT RightForeArm
								{
									OFFSET -34.140198 0.000000 0.000000
									CHANNELS 3 Xrotation Yrotation Zrotation
									JOINT RightHand
									{
										OFFSET -40.960209 0.000000 0.000000
										CHANNELS 3 Xrotation Yrotation Zrotation
										JOINT RightHandThumb1
										{
											OFFSET -10.007050 -7.170456 9.573117
											CHANNELS 3 Xrotation Yrotation Zrotation
											JOINT RightHandThumb2
											{
												OFFSET -1.835007 -1.059448 1.059443
												CHANNELS 3 Xrotation Yrotation Zrotation
												JOINT RightHandThumb3
												{
													OFFSET -2.112267 -1.219513 1.219518
													CHANNELS 3 Xrotation Yrotation Zrotation
													JOINT RightHandThumb4
													{
														OFFSET -4.843834 -2.796585 2.796590
														CHANNELS 3 Xrotation Yrotation Zrotation
														End Site
														{
															OFFSET 0.000000 0.000000 0.000000
														}
													}
												}
											}
										}
										JOINT RightHandIndex1
										{
											OFFSET -18.389870 -0.922424 4.596786
											CHANNELS 3 Xrotation Yrotation Zrotation
											JOINT RightHandIndex2
											{
												OFFSET -4.711273 0.000000 0.000000
												CHANNELS 3 Xrotation Yrotation Zrotation
												JOINT RightHandIndex3
												{
													OFFSET -2.886131 0.000000 0.000000
													CHANNELS 3 Xrotation Yrotation Zrotation
													JOINT RightHandIndex4
													{
														OFFSET -6.145920 0.000000 0.000000
														CHANNELS 3 Xrotation Yrotation Zrotation
														End Site
														{
															OFFSET 0.000000 0.000000 0.000000
														}
													}
												}
											}
										}
										JOINT RightHandMiddle1
										{
											OFFSET -18.013008 0.000000 0.000000
											CHANNELS 3 Xrotation Yrotation Zrotation
											JOINT RightHandMiddle2
											{
												OFFSET -4.946693 0.000000 0.000000
												CHANNELS 3 Xrotation Yrotation Zrotation
												JOINT RightHandMiddle3
												{
													OFFSET -3.342232 0.000000 0.000000
													CHANNELS 3 Xrotation Yrotation Zrotation
													JOINT RightHandMiddle4
													{
														OFFSET -4.461754 0.000000 0.000000
														CHANNELS 3 Xrotation Yrotation Zrotation
														End Site
														{
															OFFSET 0.000000 0.000000 0.000000
														}
													}
												}
											}
										}
										JOINT RightHandRing1
										{
											OFFSET -15.849876 -0.102936 -4.126237
											CHANNELS 3 Xrotation Yrotation Zrotation
											JOINT RightHandRing2
											{
												OFFSET -3.527054 0.000000 0.000000
												CHANNELS 3 Xrotation Yrotation Zrotation
												JOINT RightHandRing3
												{
													OFFSET -2.961098 0.000000 0.000000
													CHANNELS 3 Xrotation Yrotation Zrotation
													JOINT RightHandRing4
													{
														OFFSET -4.927200 0.000000 0.000000
														CHANNELS 3 Xrotation Yrotation Zrotation
														End Site
														{
															OFFSET 0.000000 0.000000 0.000000
														}
													}
												}
											}
										}
										JOINT RightHandPinky1
										{
											OFFSET -12.791786 -0.832077 -6.799222
											CHANNELS 3 Xrotation Yrotation Zrotation
											JOINT RightHandPinky2
											{
												OFFSET -3.327133 0.000000 0.000000
												CHANNELS 3 Xrotation Yrotation Zrotation
												JOINT RightHandPinky3
												{
													OFFSET -3.014900 0.000000 0.000000
													CHANNELS 3 Xrotation Yrotation Zrotation
													JOINT RightHandPinky4
													{
														OFFSET -5.847786 0.000000 0.000000
														CHANNELS 3 Xrotation Yrotation Zrotation
														End Site
														{
															OFFSET 0.000000 0.000000 0.000000
														}
													}
												}
											}
										}
									}
								}
							}
						}
					}
				}
			}
		}
	}
	JOINT LeftUpLeg
	{
		OFFSET 13.026900 -6.336304 -1.092800
		CHANNELS 3 Xrotation Yrotation Zrotation
		JOINT LeftLeg
		{
			OFFSET 0.524474 -46.096886 9.782700
			CHANNELS 3 Xrotation Yrotation Zrotation
			JOINT LeftFoot
			{
				OFFSET -0.524474 -53.427422 -12.948200
				CHANNELS 3 Xrotation Yrotation Zrotation
				JOINT LeftToeBase
				{
					OFFSET 0.192200 -14.009700 16.364100
					CHANNELS 3 Xrotation Yrotation Zrotation
					JOINT LeftToe_End
					{
						OFFSET -1.784700 -0.561700 9.474800
						CHANNELS 3 Xrotation Yrotation Zrotation
						End Site
						{
							OFFSET 0.000000 0.000000 0.000000
						}
					}
				}
			}
		}
	}
	JOINT RightUpLeg
	{
		OFFSET -12.883000 -6.336304 -1.092800
		CHANNELS 3 Xrotation Yrotation Zrotation
		JOINT RightLeg
		{
			OFFSET -0.524587 -46.096825 9.782800
			CHANNELS 3 Xrotation Yrotation Zrotation
			JOINT RightFoot
			{
				OFFSET 0.524587 -53.427383 -12.948300
				CHANNELS 3 Xrotation Yrotation Zrotation
				JOINT RightToeBase
				{
					OFFSET -0.192200 -14.009700 16.364100
					CHANNELS 3 Xrotation Yrotation Zrotation
					JOINT RightToe_End
					{
						OFFSET 1.784700 -0.561700 9.474800
						CHANNELS 3 Xrotation Yrotation Zrotation
						End Site
						{
							OFFSET 0.000000 0.000000 0.000000
						}
					}
				}
			}
		}
	}
}
MOTION
Frames: 5
Frame Time: 0.016667
3.010699 102.761681 -9.185243 4.997652 -64.047237 5.703678 6.024086 -0.067688 -9.417595 2.022904 1.037171 -3.225559 0.000000 0.000000 0.000000 1.954053 1.061968 -3.259242 -0.427863 1.561224 3.150429 -6.501609 52.691146 -2.930373 0.000000 0.000001 0.000000 8.323262 13.077831 -7.024608 0.000000 0.000000 0.000000 9.541101 6.100886 -50.685625 -17.718194 -52.472597 -11.271223 -68.344314 2.082865 12.151082 40.109890 -15.297218 -0.360576 5.639853 28.097969 11.338797 1.088531 40.896270 22.734022 -0.000006 0.000000 0.000000 6.882204 2.840058 -61.140513 8.247977 7.640061 -89.897850 2.146080 8.173391 -41.827819 0.000000 -0.000003 -0.000000 -2.345569 4.688888 -62.655313 8.754115 9.897148 -87.051307 1.995355 4.929246 -37.483313 0.000000 0.000002 -0.000000 -9.042522 10.045736 -60.766246 8.524055 9.508848 -66.892988 6.576537 9.896784 -70.385168 -0.000000 0.000002 0.000001 -17.946962 14.755041 -51.485887 8.868420 8.667039 -84.812003 4.540492 8.852559 -59.152969 0.000000 -0.000000 0.000002 -1.250377 0.958163 0.166083 0.000000 0.000000 0.000000 14.011430 15.962907 54.635923 -3.654925 37.198733 3.123682 -40.713863 8.548939 -33.022261 -1.061790 -5.152526 8.081560 1.452026 -24.614571 -6.362839 -3.138358 5.616684 2.809219 0.000000 -0.000000 0.000003 0.188938 0.143005 1.399184 -0.094985 -0.785871 10.671225 -0.179635 -2.788590 3.080029 -0.000001 -0.000000 -0.000001 0.348249 -5.918434 2.583759 1.609631 -4.842107 28.629260 0.017220 -0.456560 8.215496 -0.000001 -0.000002 0.000000 0.965508 -11.985680 1.668192 1.794829 -3.771898 26.865473 1.656429 -4.624054 23.386281 0.000000 0.000001 -0.000000 2.078717 -19.147956 10.710196 3.052585 -1.679782 16.780175 6.366970 -5.015704 28.949234 -0.000001 0.000001 -0.000001 -47.422949 9.619474 34.912464 57.976449 5.406262 1.802920 5.080632 3.251681 -13.953715 2.074136 -0.000527 0.000016 0.000000 0.000000 -0.000000 -36.166856 -17.728567 -31.653955 42.355321 6.375535 -0.264017 -11.287215 1.257634 14.997267 0.000274 -0.000178 0.000010 0.000000 0.000000 0.000000 
2.698039 102.270287 -8.887742 4.610180 -66.225699 5.522831 6.566892 0.339549 -9.725132 2.213362 1.252812 -3.503123 0.000000 0.000000 0.000000 2.134164 1.287683 -3.544567 -0.726364 1.472294 3.093046 -7.529519 54.155863 -2.182900 -0.000001 -0.000000 0.000000 7.748749 12.716431 -7.899210 0.000000 0.000000 0.000000 3.768039 9.179779 -48.813839 -14.713858 -50.244504 -8.593120 -62.145282 -0.745697 11.047869 40.109890 -15.297218 -0.360545 5.639851 28.097933 11.338771 1.088567 40.896280 22.734027 -0.000004 0.000001 0.000002 6.882174 2.840054 -61.140486 8.247990 7.640088 -89.897809 2.146074 8.173401 -41.827778 -0.000000 0.000000 0.000000 -2.345590 4.688882 -62.655258 8.754087 9.897164 -87.051253 1.995394 4.929269 -37.483351 0.000000 -0.000001 -0.000000 -9.042505 10.045740 -60.766267 8.524033 9.508837 -66.892947 6.576574 9.896764 -70.385209 0.000000 0.000000 0.000000 -17.946966 14.755025 -51.485925 8.868429 8.667054 -84.811996 4.540483 8.852537 -59.153004 -0.000000 -0.000003 -0.000000 -1.130644 1.066996 0.184880 0.000000 0.000000 0.000000 14.688279 15.673575 54.960015 -0.682693 33.923439 1.183346 -47.488775 7.229289 -35.346188 -1.746945 -5.633440 9.467125 1.769573 -24.313728 -7.223185 -3.576689 7.904287 3.616476 -0.000002 -0.000001 0.000003 0.055238 0.373338 0.873913 -0.045537 -0.390806 7.572035 -0.096376 -2.347376 -0.186933 -0.000002 0.000002 0.000006 0.374754 -5.832930 1.407350 1.498666 -4.485157 26.058305 -0.006514 0.218691 3.995379 -0.000000 -0.000000 -0.000002 1.026385 -11.929848 2.279485 1.646407 -3.560650 25.559942 1.463198 -4.272853 21.169048 0.000001 0.000001 0.000001 2.327900 -19.238768 13.973350 3.124609 -1.790120 17.283088 6.297700 -4.907032 28.255058 -0.000001 -0.000000 0.000000 -44.822727 8.008632 33.661751 55.871931 3.545644 1.676386 0.848872 2.529255 -14.300371 1.978035 -0.000536 -0.000002 0.000001 0.000001 0.000001 -36.179106 -15.934580 -30.894301 43.268603 6.675944 -0.475050 -11.613566 1.379056 15.079664 0.000261 -0.000144 0.000002 0.000000 0.000000 0.000000 
2.444038 101.838814 -8.449643 4.516659 -68.056449 5.682387 7.425250 0.488041 -9.811805 2.596585 1.518469 -3.801019 0.000000 0.000000 0.000000 2.492143 1.563047 -3.857252 -0.932581 1.253269 2.928706 -9.210478 55.518117 -1.362796 0.000001 0.000000 -0.000000 7.224914 11.907269 -8.568574 0.000000 0.000000 0.000000 -2.264326 11.705522 -47.207553 -12.391275 -47.836350 -6.593977 -56.577199 -1.497004 9.008524 40.109924 -15.297197 -0.360528 5.639841 28.097938 11.338812 1.088553 40.896267 22.734015 -0.000001 -0.000001 -0.000002 6.882208 2.840033 -61.140507 8.247957 7.640053 -89.897837 2.146046 8.173418 -41.827764 0.000000 -0.000000 -0.000000 -2.345568 4.688851 -62.655272 8.754083 9.897184 -87.051273 1.995402 4.929249 -37.483327 -0.000000 -0.000000 -0.000000 -9.042537 10.045744 -60.766274 8.524085 9.508837 -66.892967 6.576526 9.896748 -70.385188 0.000001 -0.000001 0.000002 -17.946969 14.755031 -51.485925 8.868421 8.667048 -84.811989 4.540480 8.852552 -59.153017 -0.000000 0.000004 -0.000001 -1.065458 1.265482 0.198263 0.000000 0.000000 0.000000 14.656630 14.472732 55.166000 -4.528749 30.845940 3.374013 -47.603970 6.503127 -36.543325 -2.346136 -6.100529 10.731434 2.076102 -24.043424 -8.030821 -4.045028 10.085860 4.402652 -0.000003 0.000003 -0.000004 -0.054799 0.532068 0.738701 0.019783 -0.087319 5.078598 -0.004014 -2.004417 -2.834068 -0.000000 0.000001 0.000000 0.381857 -5.810088 1.088497 1.432692 -4.204242 24.052144 0.015193 0.822425 0.193459 -0.000001 -0.000001 -0.000001 1.176574 -11.785465 3.841130 1.607181 -3.502566 25.206263 1.319754 -3.995367 19.486859 0.000000 0.000000 -0.000001 2.615599 -19.318237 17.991241 3.315360 -2.067403 18.569818 6.279241 -4.877374 28.066926 -0.000001 0.000000 -0.000000 -42.947533 7.616365 33.089961 53.481290 2.125639 1.572678 -2.513246 0.640133 -13.571214 2.145200 -0.000529 -0.000003 -0.000001 -0.000004 0.000001 -36.179908 -14.116453 -30.296288 43.969534 6.764899 -0.698980 -11.854843 1.388719 15.392989 0.000318 -0.000171 -0.000001 -0.000000 0.000000 0.000000 
2.322837 101.406410 -7.858008 4.602061 -69.104555 5.959929 8.345759 0.107214 -9.773214 3.018317 1.678093 -4.067150 0.000000 0.000000 0.000000 2.881017 1.725152 -4.151141 -0.981798 1.071897 2.832518 -11.175561 56.782320 -0.649289 -0.000001 0.000000 -0.000000 6.677908 10.753161 -8.549246 0.000000 0.000000 0.000000 -8.021118 14.587831 -46.182689 -13.712509 -45.464632 -7.520440 -48.869949 -1.339820 7.345886 40.109914 -15.297237 -0.360558 5.639840 28.097964 11.338828 1.088535 40.896287 22.734017 -0.000001 -0.000001 -0.000000 6.882202 2.840013 -61.140500 8.247984 7.640107 -89.897850 2.146064 8.173411 -41.827754 -0.000001 -0.000002 -0.000000 -2.345541 4.688832 -62.655251 8.754078 9.897137 -87.051314 1.995393 4.929249 -37.483371 -0.000000 -0.000001 -0.000001 -9.042522 10.045691 -60.766212 8.524063 9.508867 -66.892960 6.576540 9.896762 -70.385181 -0.000000 0.000001 -0.000000 -17.946973 14.755019 -51.485867 8.868445 8.667085 -84.811955 4.540470 8.852538 -59.153024 -0.000001 0.000002 -0.000001 -0.941222 1.430433 0.218051 0.000000 0.000000 0.000000 14.222945 13.758795 55.030096 -5.122345 28.405608 3.551379 -49.977768 5.601610 -36.818237 -2.731569 -6.426721 11.574433 2.364077 -23.806191 -8.771051 -4.529257 12.124775 5.155753 -0.000001 0.000000 -0.000001 -0.124217 0.615504 0.793048 0.070682 0.090729 3.555007 0.063431 -1.801150 -4.460266 0.000001 0.000001 0.000003 0.372803 -5.839098 1.492324 1.402480 -4.036297 22.855978 0.067459 1.336857 -3.089699 -0.000000 0.000001 -0.000005 1.383443 -11.568638 6.136995 1.656970 -3.576015 25.654144 1.236977 -3.828890 18.507559 0.000000 0.000000 0.000000 2.906243 -19.368576 22.456810 3.612584 -2.462295 20.466638 6.302638 -4.914814 28.305154 -0.000000 0.000000 0.000001 -41.785602 7.678298 32.308885 51.286801 -1.007829 1.344347 -6.088531 -0.715334 -12.218529 2.838631 -0.000557 0.000001 0.000000 -0.000001 -0.000001 -36.062798 -12.491063 -29.941227 44.510967 6.514395 -0.942254 -12.071734 1.179328 16.035244 -0.001686 -0.000144 -0.000022 0.000000 -0.000000 -0.000000 
2.279429 100.994934 -7.234594 4.753823 -69.963048 6.273509 9.331111 -0.073277 -9.709211 3.397631 1.758917 -4.272322 0.000000 0.000000 0.000000 3.242728 1.798969 -4.382678 -0.898299 1.097344 2.897778 -13.021778 57.653968 -0.236439 0.000001 -0.000000 -0.000000 6.161461 9.525338 -8.649466 0.000000 0.000000 0.000000 -13.098016 17.120284 -45.158779 -10.163047 -44.135692 -4.830602 -45.143394 -1.467072 5.878639 40.109910 -15.297223 -0.360554 5.639833 28.097911 11.338781 1.088568 40.896297 22.733993 -0.000001 0.000001 -0.000000 6.882189 2.840041 -61.140473 8.247971 7.640115 -89.897830 2.146095 8.173424 -41.827771 -0.000000 -0.000000 -0.000000 -2.345547 4.688890 -62.655299 8.754076 9.897149 -87.051260 1.995419 4.929271 -37.483337 0.000000 0.000000 -0.000001 -9.042505 10.045745 -60.766205 8.524055 9.508827 -66.892994 6.576551 9.896762 -70.385154 0.000001 -0.000000 -0.000001 -17.946959 14.755013 -51.485891 8.868402 8.667030 -84.811996 4.540439 8.852549 -59.153024 0.000000 -0.000001 -0.000000 -0.733837 1.485826 0.243880 0.000000 0.000000 0.000000 13.715253 13.538931 54.727905 -5.815017 26.602187 3.807465 -51.655283 4.845661 -36.496265 -2.824992 -6.508977 11.782577 2.559006 -23.654241 -9.262986 -5.012430 13.984935 5.861545 0.000001 -0.000002 -0.000000 -0.141395 0.636185 0.806476 0.083838 0.134265 3.178276 0.080791 -1.751373 -4.862474 -0.000000 -0.000001 -0.000000 0.350486 -5.911161 2.483821 1.395578 -3.994661 22.560241 0.133925 1.746538 -5.753047 -0.000001 -0.000000 0.000002 1.614269 -11.296925 8.951126 1.782022 -3.754167 26.754406 1.217041 -3.787331 18.265454 -0.000000 0.000001 -0.000001 3.169397 -19.383715 27.064039 4.003457 -2.924266 22.800068 6.360997 -5.006510 28.890211 0.000000 -0.000000 -0.000000 -40.858984 7.882902 31.341723 49.254639 -4.484727 1.090188 -6.969335 -2.048501 -9.941966 3.881876 -0.000519 -0.000015 -0.000001 0.000001 0.000000 -36.063371 -11.149120 -29.765210 44.949089 6.338562 -1.176789 -12.197886 1.044902 16.663821 -0.001691 -0.000178 0.000003 -0.000000 -0.000000 0.000000 
